<svg width="30" height="33" viewBox="0 0 30 33" fill="none" xmlns="http://www.w3.org/2000/svg">
<path d="M18.8541 14.84L21.2099 10.8527L27.5595 20.7182L27.5625 22.611L27.5417 9.5827C27.5343 9.42556 27.4891 9.27249 27.4099 9.13643C27.3307 9.00037 27.2199 8.88532 27.0868 8.80098L15.6551 2.24181C15.5185 2.17708 15.3691 2.14383 15.2178 2.14454C15.0666 2.14525 14.9175 2.1799 14.7816 2.24592C14.7463 2.26356 14.7121 2.28328 14.6792 2.30498L14.6394 2.33006L3.54281 8.74442L3.49961 8.7638C3.44209 8.79038 3.38721 8.82229 3.3357 8.85913C3.12759 9.00738 2.98576 9.23085 2.94045 9.48191C2.93351 9.51999 2.92877 9.55844 2.92627 9.59707L2.94364 20.2138L8.85804 11.0693C9.60259 9.85681 11.225 9.46617 12.731 9.48738L14.4986 9.53299L4.08346 26.1946L5.31127 26.8997L15.8512 9.54964L20.5099 9.53276L9.99716 27.32L14.3785 29.8353L14.902 30.1356C15.1279 30.2252 15.3785 30.2301 15.6077 30.1496L27.2001 23.4481L24.9827 24.7292L18.8541 14.84ZM19.753 27.7533L15.3282 20.8256L18.0291 16.2536L23.8402 25.3903L19.753 27.7533Z" fill="#F0F0F0"/>
<path d="M15.3282 20.8259L19.753 27.7534L23.8404 25.3904L18.0296 16.2539L15.3282 20.8259Z" fill="white"/>
<path d="M27.5632 22.6118L27.5602 20.7191L21.2106 10.8535L18.8535 14.8404L24.9832 24.7296L27.2006 23.4485C27.308 23.3617 27.3958 23.2533 27.4583 23.1303C27.5208 23.0074 27.5566 22.8726 27.5634 22.7349L27.5632 22.6118Z" fill="white"/>
<path d="M0.954468 24.3954L4.08426 26.1944L14.4994 9.53275L12.7318 9.48714C11.2258 9.46593 9.6034 9.85634 8.85884 11.0691L2.94445 20.2135L0.955612 23.2631V24.3963L0.954468 24.3954Z" fill="white"/>
<path d="M20.5104 9.5332L15.8519 9.55008L5.31201 26.9002L8.99593 29.0162L9.99767 27.3211L20.5104 9.5332Z" fill="white"/>
<path d="M29.5255 9.50918C29.5042 9.02959 29.3663 8.56238 29.1236 8.14782C28.8809 7.73326 28.5409 7.3838 28.1327 7.12956L16.5512 0.485795C16.1378 0.283122 15.6832 0.177734 15.2226 0.177734C14.7619 0.177734 14.3074 0.283122 13.894 0.485795C13.7973 0.534368 2.63119 6.99456 2.63119 6.99456C2.47604 7.06887 2.32766 7.15646 2.1877 7.25635C1.82513 7.51355 1.5257 7.84936 1.31189 8.23856C1.09809 8.62776 0.975469 9.06022 0.953247 9.50348V23.2631L2.94208 20.2135L2.92677 9.5972C2.93607 9.45165 2.97762 9.30997 3.04842 9.18237C3.11922 9.05476 3.2175 8.94441 3.33619 8.85926C3.38877 8.82163 14.7455 2.26406 14.7816 2.24605C14.9176 2.18003 15.0667 2.14539 15.2179 2.14468C15.3691 2.14396 15.5185 2.17721 15.6551 2.24194L27.0868 8.80156C27.2199 8.88591 27.3308 9.00096 27.4099 9.13702C27.4891 9.27308 27.5343 9.42614 27.5417 9.58329V22.7349C27.539 22.8713 27.507 23.0055 27.4481 23.1285C27.3892 23.2516 27.3046 23.3606 27.2 23.4485L24.9825 24.7296L23.8395 25.3909L19.7521 27.7539L15.6069 30.1504C15.3777 30.231 15.127 30.2261 14.9012 30.1365L9.99697 27.3227L8.99524 29.0175L13.4027 31.5487C13.5485 31.6313 13.6784 31.7047 13.7849 31.7645C13.95 31.8557 14.0624 31.9184 14.102 31.9375C14.4707 32.0987 14.8694 32.1805 15.272 32.1777C15.6412 32.1782 16.0072 32.1095 16.351 31.9752L28.3907 25.0199C28.7304 24.7563 29.008 24.4217 29.204 24.0395C29.4 23.6573 29.5096 23.2369 29.5251 22.8079L29.5255 9.50918Z" fill="white"/>
</svg>
