<svg width="21" height="33" viewBox="0 0 21 33" fill="none" xmlns="http://www.w3.org/2000/svg">
<g clip-path="url(#clip0_1_277)">
<path d="M10.1286 32.0894V24.0982L0.195496 18.3347L10.1286 32.0894Z" fill="white"/>
<path d="M10.1286 32.1777C10.0931 32.1777 10.0753 32.1601 10.0575 32.1424L0.124411 18.3877C0.106642 18.3523 0.106642 18.2993 0.124411 18.2816C0.15995 18.2463 0.195489 18.2463 0.231028 18.2639L10.1641 24.0451C10.1997 24.0628 10.1997 24.0982 10.1997 24.1159V32.107C10.1997 32.1424 10.1819 32.1777 10.1464 32.1954C10.1464 32.1777 10.1464 32.1777 10.1286 32.1777ZM0.515338 18.6175L10.0397 31.8242V24.1689L0.515338 18.6175Z" fill="white"/>
<path d="M10.1641 32.0893V24.0982L20.0972 18.317L10.1641 32.0893Z" fill="white"/>
<path d="M10.1641 32.1777C10.1463 32.1777 10.1463 32.1777 10.1286 32.1777C10.093 32.1601 10.0753 32.1247 10.0753 32.0893V24.0982C10.0753 24.0628 10.093 24.0451 10.1108 24.0275L20.0439 18.2462C20.0794 18.2286 20.1328 18.2286 20.1505 18.2639C20.1861 18.2993 20.1861 18.3346 20.1505 18.37L10.2174 32.1247C10.2174 32.1601 10.1819 32.1777 10.1641 32.1777ZM10.253 24.1512V31.8065L19.7774 18.5998L10.253 24.1512Z" fill="white"/>
<path d="M10.1286 22.1181V11.9346L0.0888672 16.4076L10.1286 22.1181Z" fill="white"/>
<path d="M10.1286 22.2065C10.1108 22.2065 10.093 22.2065 10.093 22.1888L0.0533083 16.4783C0.0177694 16.4606 0 16.4253 0 16.4076C0 16.3722 0.0177694 16.3369 0.0533083 16.3369L10.093 11.8463C10.1286 11.8286 10.1463 11.8286 10.1819 11.8463C10.1997 11.8639 10.2174 11.8816 10.2174 11.917V22.1004C10.2174 22.1358 10.1997 22.1534 10.1819 22.1711C10.1641 22.2065 10.1463 22.2065 10.1286 22.2065ZM0.284311 16.4076L10.0397 21.959V12.0584L0.284311 16.4076Z" fill="white"/>
<path d="M10.1641 22.1181V11.9346L20.2038 16.4076L10.1641 22.1181Z" fill="white"/>
<path d="M10.1641 22.2065C10.1463 22.2065 10.1286 22.2065 10.1108 22.1888C10.0753 22.1711 10.0753 22.1357 10.0753 22.1181V11.9346C10.0753 11.8993 10.093 11.8816 10.1108 11.8639C10.1286 11.8462 10.1641 11.8462 10.1996 11.8639L20.2394 16.3369C20.2749 16.3545 20.2927 16.3722 20.2927 16.4076C20.2927 16.4429 20.2749 16.4783 20.2394 16.496L10.1996 22.2065C10.1996 22.2065 10.1819 22.2065 10.1641 22.2065ZM10.253 12.0761V21.9766L20.0084 16.4252L10.253 12.0761Z" fill="white"/>
<path d="M0.0888672 16.4076L10.1286 0.266129V11.9346L0.0888672 16.4076Z" fill="white"/>
<path d="M0.0888495 16.496C0.0710801 16.496 0.0355412 16.4783 0.0177718 16.4606C2.35811e-06 16.4252 -0.0177671 16.3899 0.0177718 16.3545L10.0575 0.213093C10.0753 0.177734 10.1108 0.177734 10.1463 0.177734C10.1819 0.195414 10.2174 0.230773 10.2174 0.266132V11.9346C10.2174 11.97 10.1997 12.0054 10.1641 12.023L0.124388 16.4783C0.106619 16.496 0.106619 16.496 0.0888495 16.496ZM10.0397 0.584364L0.319852 16.2131L10.0397 11.8816V0.584364Z" fill="white"/>
<path d="M20.2038 16.4076L10.1641 0.266129V11.9346L20.2038 16.4076Z" fill="white"/>
<path d="M20.2038 16.496C20.1861 16.496 20.1861 16.496 20.1683 16.496L10.1286 12.0054C10.093 11.9877 10.0753 11.9523 10.0753 11.917V0.248456C10.0753 0.213096 10.093 0.177737 10.1463 0.160058C10.1819 0.142378 10.2174 0.160058 10.253 0.195417L20.2927 16.3369C20.3104 16.3722 20.3104 16.4076 20.2927 16.4429C20.2571 16.4783 20.2216 16.496 20.2038 16.496ZM10.253 11.8816L19.9728 16.2131L10.253 0.584367V11.8816Z" fill="white"/>
</g>
<defs>
<clipPath id="clip0_1_277">
<rect width="20.2927" height="32" fill="white" transform="translate(0 0.177734)"/>
</clipPath>
</defs>
</svg>
