<svg width="21" height="33" viewBox="0 0 21 33" fill="none" xmlns="http://www.w3.org/2000/svg">
<g clip-path="url(#clip0_1_93)">
<path d="M10.1284 32.6616V24.6705L0.195312 18.9069L10.1284 32.6616Z" fill="#606CC9"/>
<path d="M10.1285 32.75C10.0929 32.75 10.0752 32.7323 10.0574 32.7147L0.124289 18.96C0.10652 18.9246 0.10652 18.8716 0.124289 18.8539C0.159828 18.8185 0.195367 18.8185 0.230906 18.8362L10.164 24.6174C10.1996 24.6351 10.1996 24.6705 10.1996 24.6881V32.6793C10.1996 32.7147 10.1818 32.75 10.1462 32.7677C10.1462 32.75 10.1462 32.75 10.1285 32.75ZM0.515216 19.1898L10.0396 32.3964V24.7412L0.515216 19.1898Z" fill="#8189C0"/>
<path d="M10.1641 32.6616V24.6704L20.0972 18.8892L10.1641 32.6616Z" fill="#606CC9"/>
<path d="M10.164 32.75C10.1463 32.75 10.1463 32.75 10.1285 32.75C10.093 32.7323 10.0752 32.697 10.0752 32.6616V24.6704C10.0752 24.6351 10.093 24.6174 10.1107 24.5997L20.0438 18.8185C20.0794 18.8008 20.1327 18.8008 20.1505 18.8362C20.186 18.8715 20.186 18.9069 20.1505 18.9423L10.2174 32.697C10.2174 32.7323 10.1818 32.75 10.164 32.75ZM10.2529 24.7235V32.3787L19.7773 19.1721L10.2529 24.7235Z" fill="#8189C0"/>
<path d="M10.1286 22.6904V12.507L0.0888672 16.9799L10.1286 22.6904Z" fill="#8189C0"/>
<path d="M10.1286 22.7788C10.1108 22.7788 10.093 22.7788 10.093 22.7611L0.0533083 17.0506C0.0177694 17.0329 0 16.9975 0 16.9799C0 16.9445 0.0177694 16.9091 0.0533083 16.9091L10.093 12.4185C10.1286 12.4009 10.1463 12.4009 10.1819 12.4185C10.1997 12.4362 10.2174 12.4539 10.2174 12.4893V22.6727C10.2174 22.708 10.1997 22.7257 10.1819 22.7434C10.1641 22.7788 10.1463 22.7788 10.1286 22.7788ZM0.284311 16.9799L10.0397 22.5312V12.6307L0.284311 16.9799Z" fill="#8189C0"/>
<path d="M10.1641 22.6904V12.507L20.2038 16.9799L10.1641 22.6904Z" fill="#606CC9"/>
<path d="M10.164 22.7788C10.1463 22.7788 10.1285 22.7788 10.1107 22.7611C10.0752 22.7434 10.0752 22.7081 10.0752 22.6904V12.507C10.0752 12.4716 10.093 12.4539 10.1107 12.4362C10.1285 12.4186 10.164 12.4186 10.1996 12.4362L20.2393 16.9092C20.2748 16.9268 20.2926 16.9445 20.2926 16.9799C20.2926 17.0152 20.2748 17.0506 20.2393 17.0683L10.1996 22.7788C10.1996 22.7788 10.1818 22.7788 10.164 22.7788ZM10.2529 12.6484V22.5489L20.0083 16.9976L10.2529 12.6484Z" fill="#8189C0"/>
<path d="M0.0887451 16.9798L10.1285 0.838379V12.5069L0.0887451 16.9798Z" fill="#606CC9"/>
<path d="M0.0887884 17.0682C0.071019 17.0682 0.0354802 17.0506 0.0177107 17.0329C-5.8677e-05 16.9975 -0.0178281 16.9622 0.0177107 16.9268L10.0574 0.785359C10.0752 0.75 10.1107 0.75 10.1463 0.75C10.1818 0.76768 10.2174 0.803039 10.2174 0.838398V12.5069C10.2174 12.5423 10.1996 12.5776 10.1641 12.5953L0.124327 17.0506C0.106558 17.0682 0.106558 17.0682 0.0887884 17.0682ZM10.0397 1.15663L0.319791 16.7854L10.0397 12.4539V1.15663Z" fill="#8189C0"/>
<path d="M20.2038 16.9799L10.1641 0.83844V12.5069L20.2038 16.9799Z" fill="#8189C0"/>
<path d="M20.2038 17.0683C20.186 17.0683 20.186 17.0683 20.1682 17.0683L10.1285 12.5776C10.093 12.56 10.0752 12.5246 10.0752 12.4892V0.820736C10.0752 0.785377 10.093 0.750018 10.1463 0.732339C10.1818 0.714659 10.2174 0.732339 10.2529 0.767698L20.2926 16.9091C20.3104 16.9445 20.3104 16.9799 20.2926 17.0152C20.2571 17.0506 20.2215 17.0683 20.2038 17.0683ZM10.2529 12.4539L19.9728 16.7854L10.2529 1.15665V12.4539Z" fill="#8189C0"/>
</g>
<defs>
<clipPath id="clip0_1_93">
<rect width="20.2927" height="32" fill="white" transform="translate(0 0.75)"/>
</clipPath>
</defs>
</svg>
