<svg width="28" height="33" viewBox="0 0 28 33" fill="none" xmlns="http://www.w3.org/2000/svg">
<path d="M5.63128 5.0792L14.123 0.177734L22.6147 5.0792L19.4927 6.88993L14.123 3.7992L8.75324 6.88993L5.63128 5.0792ZM22.6147 11.2607L19.4927 9.44993L14.123 12.5407L8.75324 9.44993L5.63128 11.2607V14.8821L11.001 17.9728V24.1543L14.123 25.9651L17.245 24.1543V17.9728L22.6147 14.8821V11.2607ZM22.6147 21.0636V17.4421L19.4927 19.2528V22.8743L22.6147 21.0636ZM24.8313 22.3436L19.4615 25.4343V29.0557L27.9533 24.1543V14.3513L24.8313 16.1621V22.3436ZM21.7094 8.16993L24.8313 9.98065V13.6021L27.9533 11.7914V8.16993L24.8313 6.3592L21.7094 8.16993ZM11.001 26.7456V30.3671L14.123 32.1777L17.245 30.3671V26.7456L14.123 28.5563L11.001 26.7456ZM5.63128 21.0636L8.75324 22.8743V19.2528L5.63128 17.4421V21.0636ZM11.001 8.16993L14.123 9.98065L17.245 8.16993L14.123 6.3592L11.001 8.16993ZM3.41467 9.98065L6.53663 8.16993L3.41467 6.3592L0.292725 8.16993V11.7914L3.41467 13.6021V9.98065ZM3.41467 16.1621L0.292725 14.3513V24.1543L8.78442 29.0557V25.4343L3.41467 22.3436V16.1621Z" fill="white"/>
</svg>
