<svg width="33" height="33" viewBox="0 0 33 33" fill="none" xmlns="http://www.w3.org/2000/svg">
<mask id="mask0_1_305" style="mask-type:luminance" maskUnits="userSpaceOnUse" x="0" y="0" width="33" height="33">
<path d="M32.5175 0.177734H0.525513V32.1777H32.5175V0.177734Z" fill="white"/>
</mask>
<g mask="url(#mask0_1_305)">
<path d="M24.4521 10.8761C24.1547 10.7099 23.8197 10.6226 23.4789 10.6226C23.1382 10.6226 22.8032 10.7099 22.5058 10.8761L18.0402 13.4668L15.0061 15.1564L10.5408 17.7472C10.2433 17.9133 9.90826 18.0005 9.56757 18.0005C9.22687 18.0005 8.89184 17.9133 8.59437 17.7472L5.0448 15.7196C4.756 15.554 4.51478 15.3167 4.34442 15.0306C4.17406 14.7445 4.08032 14.4193 4.07225 14.0864V10.0876C4.06825 9.75222 4.15695 9.42221 4.32856 9.13401C4.50017 8.8458 4.74803 8.61061 5.0448 8.45437L8.53704 6.48317C8.83451 6.31704 9.16954 6.22982 9.51024 6.22982C9.85093 6.22982 10.186 6.31704 10.4834 6.48317L13.9757 8.45437C14.2645 8.62002 14.5057 8.85735 14.6761 9.14345C14.8464 9.42955 14.9402 9.75475 14.9482 10.0876V12.6784L17.9823 10.9324V8.34173C17.9863 8.0063 17.8976 7.67629 17.726 7.38809C17.5544 7.09988 17.3066 6.86469 17.0098 6.70845L10.5408 2.99158C10.2433 2.82545 9.90826 2.73824 9.56757 2.73824C9.22687 2.73824 8.89184 2.82545 8.59437 2.99158L2.00992 6.7087C1.71319 6.86493 1.46536 7.10008 1.29374 7.38823C1.12213 7.67639 1.03341 8.00635 1.03736 8.34173V15.8323C1.03336 16.1677 1.12206 16.4977 1.29368 16.7859C1.46529 17.0741 1.71315 17.3093 2.00992 17.4656L8.5936 21.1827C8.89107 21.3488 9.2261 21.436 9.5668 21.436C9.9075 21.436 10.2425 21.3488 10.54 21.1827L15.0053 18.6483L18.0394 16.9024L22.505 14.368C22.8024 14.2017 23.1375 14.1144 23.4782 14.1144C23.8189 14.1144 24.1539 14.2017 24.4514 14.368L27.9436 16.3392C28.2324 16.5048 28.4736 16.7422 28.644 17.0283C28.8143 17.3144 28.9081 17.6396 28.9162 17.9724V21.9712C28.9202 22.3066 28.8315 22.6366 28.6599 22.9248C28.4882 23.213 28.2404 23.4482 27.9436 23.6045L24.4514 25.632C24.1539 25.7981 23.8189 25.8853 23.4782 25.8853C23.1375 25.8853 22.8025 25.7981 22.505 25.632L19.0127 23.6608C18.724 23.4951 18.4827 23.2578 18.3124 22.9717C18.142 22.6856 18.0483 22.3604 18.0402 22.0275V19.4365L15.0061 21.1824V23.7732C15.0021 24.1086 15.0908 24.4386 15.2624 24.7268C15.434 25.015 15.6819 25.2502 15.9786 25.4064L22.5623 29.1236C22.8598 29.2897 23.1948 29.3769 23.5355 29.3769C23.8762 29.3769 24.2112 29.2897 24.5087 29.1236L31.0924 25.4064C31.3812 25.2408 31.6224 25.0034 31.7927 24.7173C31.9631 24.4312 32.0569 24.106 32.0649 23.7732V16.2828C32.0689 15.9474 31.9802 15.6174 31.8086 15.3292C31.637 15.041 31.3892 14.8058 31.0924 14.6496L24.4521 10.8761Z" fill="white"/>
</g>
</svg>
