<svg width="117" height="39" viewBox="0 0 117 39" fill="none" xmlns="http://www.w3.org/2000/svg">
<path d="M34.35 19.2598C34.2833 24.4931 32.9667 28.7598 30.4 32.0598L33 34.6598L29.7 38.0098L26.95 35.2598C24.2167 37.0931 21.0167 38.0098 17.35 38.0098C14.7167 38.0098 12.2667 37.5098 10 36.5098C7.73333 35.5098 5.86667 34.0598 4.4 32.1598C1.7 28.7931 0.35 24.4931 0.35 19.2598C0.283333 14.0598 1.63333 9.7431 4.4 6.30976C7.43333 2.4431 11.75 0.509763 17.35 0.509763C22.9167 0.57643 27.2333 2.50976 30.3 6.30976C32.9333 9.60976 34.2833 13.9264 34.35 19.2598ZM17.35 33.0598C19.5167 33.0598 21.4833 32.5598 23.25 31.5598L19.65 28.0098L23 24.6598L26.6 28.2598C28.0667 25.9931 28.8 22.9931 28.8 19.2598C28.8667 15.1598 27.9667 11.9098 26.1 9.50976C25.1333 8.17643 23.8667 7.17643 22.3 6.50976C20.7667 5.80976 19.1167 5.47643 17.35 5.50976C15.5833 5.47643 13.9167 5.80976 12.35 6.50976C10.7833 7.17643 9.51667 8.17643 8.55 9.50976C6.81667 11.7431 5.91667 14.9931 5.85 19.2598C5.85 23.4264 6.75 26.6764 8.55 29.0098C9.51667 30.3431 10.7833 31.3598 12.35 32.0598C13.9167 32.7598 15.5833 33.0931 17.35 33.0598ZM68.9188 1.25976V24.0598C68.9188 27.3264 67.8688 30.2764 65.7688 32.9098C63.1021 36.3098 59.3854 38.0098 54.6188 38.0098C52.3854 38.0098 50.2688 37.5764 48.2688 36.7098C46.3021 35.8098 44.6688 34.5431 43.3688 32.9098C41.2688 30.3098 40.2188 27.3598 40.2188 24.0598V1.30976L45.5188 1.25976V23.1098C45.5188 25.7764 46.1521 27.9598 47.4188 29.6598C49.2521 31.9598 51.6521 33.1098 54.6188 33.1098C55.9854 33.1098 57.3021 32.8098 58.5688 32.2098C59.8354 31.5764 60.8854 30.7098 61.7188 29.6098C62.9854 28.0431 63.6188 25.8764 63.6188 23.1098V1.25976H68.9188Z" fill="white"/>
<path d="M76.4375 1.25976H81.6875V37.2598H76.4375V1.25976ZM97.6531 37.2598L85.9531 1.25976H91.3531L101.353 31.9598L111.453 1.25976H116.853L105.153 37.2598H97.6531Z" fill="#00E6FE"/>
</svg>
